<svg version="1.1" xmlns="http://www.w3.org/2000/svg" xmlns:xlink="http://www.w3.org/1999/xlink" width="1228" height="1460"><defs/><g><g transform="translate(-254,-86) scale(1,1)"><rect fill="#ffffff" stroke="none" x="264" y="128" width="336" height="1408"/></g><g transform="translate(-254,-86) scale(1,1)"><path fill="none" stroke="#ff602b" d="M 264 128 L 600 128 L 600 1536 L 264 1536 L 264 128 Z Z" stroke-miterlimit="10"/></g><g transform="translate(-254,-86) scale(1,1)"><rect fill="#ffffff" stroke="none" x="600" y="128" width="488" height="1408"/></g><g transform="translate(-254,-86) scale(1,1)"><path fill="none" stroke="#ff7f00" d="M 600 128 L 1088 128 L 1088 1536 L 600 1536 L 600 128 Z Z" stroke-miterlimit="10"/></g><g transform="translate(-254,-86) scale(1,1)"><rect fill="#ffffff" stroke="none" x="1088" y="128" width="384" height="1408"/></g><g transform="translate(-254,-86) scale(1,1)"><path fill="none" stroke="#ff602b" d="M 1088 128 L 1472 128 L 1472 1536 L 1088 1536 L 1088 128 Z Z" stroke-miterlimit="10"/></g><g transform="translate(-254,-86) scale(1,1)"><g><path fill="none" stroke="none"/><text fill="#000000" stroke="none" font-family="Arial" font-size="13px" font-style="normal" font-weight="normal" text-decoration="none" x="381" y="114">用户</text></g></g><g transform="translate(-254,-86) scale(1,1)"><g><path fill="none" stroke="none"/><text fill="#000000" stroke="none" font-family="Arial" font-size="13px" font-style="normal" font-weight="normal" text-decoration="none" x="869" y="114">服务器</text></g></g><g transform="translate(-254,-86) scale(1,1)"><g><path fill="none" stroke="none"/><text fill="#000000" stroke="none" font-family="Arial" font-size="13px" font-style="normal" font-weight="normal" text-decoration="none" x="1205" y="122">数据库</text></g></g><g transform="translate(-254,-86) scale(1,1)"><path fill="#C0C0C0" stroke="none" d="M 447 168.5 C 447 163.2532944 451.2532944 159 456.5 159 C 461.7467056 159 466 163.2532944 466 168.5 C 466 173.7467056 461.7467056 178 456.5 178 C 451.2532944 178 447 173.7467056 447 168.5 Z" opacity="0.2"/></g><g transform="translate(-254,-86) scale(1,1)"><path fill="#000000" stroke="none" d="M 440 161.5 C 440 156.2532944 444.2532944 152 449.5 152 C 454.7467056 152 459 156.2532944 459 161.5 C 459 166.7467056 454.7467056 171 449.5 171 C 444.2532944 171 440 166.7467056 440 161.5 Z"/></g><g transform="translate(-254,-86) scale(1,1)"><path fill="#C0C0C0" stroke="none" d="M 927 176.5 C 927 171.2532944 931.2532944 167 936.5 167 C 941.7467056 167 946 171.2532944 946 176.5 C 946 181.7467056 941.7467056 186 936.5 186 C 931.2532944 186 927 181.7467056 927 176.5 Z" opacity="0.2"/></g><g transform="translate(-254,-86) scale(1,1)"><path fill="#000000" stroke="none" d="M 920 169.5 C 920 164.2532944 924.2532944 160 929.5 160 C 934.7467056 160 939 164.2532944 939 169.5 C 939 174.7467056 934.7467056 179 929.5 179 C 924.2532944 179 920 174.7467056 920 169.5 Z"/></g><g transform="translate(-254,-86) scale(1,1)"><path fill="#C0C0C0" stroke="none" d="M 1215 176.5 C 1215 171.2532944 1219.2532944 167 1224.5 167 C 1229.7467056 167 1234 171.2532944 1234 176.5 C 1234 181.7467056 1229.7467056 186 1224.5 186 C 1219.2532944 186 1215 181.7467056 1215 176.5 Z" opacity="0.2"/></g><g transform="translate(-254,-86) scale(1,1)"><path fill="#000000" stroke="none" d="M 1208 169.5 C 1208 164.2532944 1212.2532944 160 1217.5 160 C 1222.7467056 160 1227 164.2532944 1227 169.5 C 1227 174.7467056 1222.7467056 179 1217.5 179 C 1212.2532944 179 1208 174.7467056 1208 169.5 Z"/></g><g transform="translate(-254,-86) scale(1,1)"><path fill="#C0C0C0" stroke="none" d="M 383 1379.5 C 383 1372.59644 388.59644 1367 395.5 1367 C 402.40356 1367 408 1372.59644 408 1379.5 C 408 1386.40356 402.40356 1392 395.5 1392 C 388.59644 1392 383 1386.40356 383 1379.5 Z" opacity="0.2"/></g><g transform="translate(-254,-86) scale(1,1)"><path fill="none" stroke="#000000" d="M 376 1372.5 C 376 1365.59644 381.59644 1360 388.5 1360 C 395.40356 1360 401 1365.59644 401 1372.5 C 401 1379.40356 395.40356 1385 388.5 1385 C 381.59644 1385 376 1379.40356 376 1372.5 Z" stroke-miterlimit="10"/></g><g transform="translate(-254,-86) scale(1,1)"><path fill="#000000" stroke="none" d="M 381 1372.5 C 381 1368.357864 384.357864 1365 388.5 1365 C 392.642136 1365 396 1368.357864 396 1372.5 C 396 1376.642136 392.642136 1380 388.5 1380 C 384.357864 1380 381 1376.642136 381 1372.5 Z"/></g><g transform="translate(-254,-86) scale(1,1)"><path fill="#C0C0C0" stroke="none" d="M 833 471 L 900 471 Q 910 471 910 481 L 910 501 Q 910 511 900 511 L 833 511 Q 823 511 823 501 L 823 481 Q 823 471 833 471 Z" opacity="0.2"/></g><g transform="translate(-254,-86) scale(1,1)"><path fill="#ffffff" stroke="none" d="M 826 464 L 893 464 Q 903 464 903 474 L 903 494 Q 903 504 893 504 L 826 504 Q 816 504 816 494 L 816 474 Q 816 464 826 464 Z"/></g><g transform="translate(-254,-86) scale(1,1)"><path fill="none" stroke="#000000" d="M 826 464 L 893 464 Q 903 464 903 474 L 903 494 Q 903 504 893 504 L 826 504 Q 816 504 816 494 L 816 474 Q 816 464 826 464 Z" stroke-miterlimit="10"/></g><g transform="translate(-254,-86) scale(1,1)"><g><path fill="none" stroke="none"/><text fill="#000000" stroke="none" font-family="Arial" font-size="13px" font-style="normal" font-weight="bold" text-decoration="none" x="820.5" y="483.5">用户身份操作</text></g></g><g transform="translate(-254,-86) scale(1,1)"><path fill="#C0C0C0" stroke="none" d="M 441 295 L 480 295 Q 490 295 490 305 L 490 325 Q 490 335 480 335 L 441 335 Q 431 335 431 325 L 431 305 Q 431 295 441 295 Z" opacity="0.2"/></g><g transform="translate(-254,-86) scale(1,1)"><path fill="#ffffff" stroke="none" d="M 434 288 L 473 288 Q 483 288 483 298 L 483 318 Q 483 328 473 328 L 434 328 Q 424 328 424 318 L 424 298 Q 424 288 434 288 Z"/></g><g transform="translate(-254,-86) scale(1,1)"><path fill="none" stroke="#000000" d="M 434 288 L 473 288 Q 483 288 483 298 L 483 318 Q 483 328 473 328 L 434 328 Q 424 328 424 318 L 424 298 Q 424 288 434 288 Z" stroke-miterlimit="10"/></g><g transform="translate(-254,-86) scale(1,1)"><g><path fill="none" stroke="none"/><text fill="#000000" stroke="none" font-family="Arial" font-size="13px" font-style="normal" font-weight="bold" text-decoration="none" x="440.5" y="307.5">登录</text></g></g><g transform="translate(-254,-86) scale(1,1)"><path fill="none" stroke="#000000" d="M 449 172 L 452 287" stroke-miterlimit="10"/></g><g transform="translate(-254,-86) scale(1,1)"><path fill="none" stroke="#000000" d="M 447.5268907689165 276.95055753751507 L 452 287 L 455.94306304207987 276.73100521734557" stroke-miterlimit="10"/></g><g transform="translate(-254,-86) scale(1,1)"><g><path fill="none" stroke="none"/><text fill="#000000" stroke="none" font-family="Arial" font-size="13px" font-style="normal" font-weight="normal" text-decoration="none" x="437.5" y="234.5">登录系统</text></g></g><g transform="translate(-254,-86) scale(1,1)"><path fill="#C0C0C0" stroke="none" d="M 375 459.5 L 391.5 447 L 407 459.5 L 391.5 471 L 375 459.5" opacity="0.2"/></g><g transform="translate(-254,-86) scale(1,1)"><path fill="#ffffff" stroke="none" d="M 368 452 L 384 440 L 400 452 L 384 464 L 368 452"/></g><g transform="translate(-254,-86) scale(1,1)"><path fill="none" stroke="#000000" d="M 368 452 L 384 440 L 400 452 L 384 464 L 368 452 L 368 452" stroke-miterlimit="10"/></g><g transform="translate(-254,-86) scale(1,1)"><path fill="#C0C0C0" stroke="none" d="M 1153 383 L 1215.68994140625 383 Q 1225.68994140625 383 1225.68994140625 393 L 1225.68994140625 413 Q 1225.68994140625 423 1215.68994140625 423 L 1153 423 Q 1143 423 1143 413 L 1143 393 Q 1143 383 1153 383 Z" opacity="0.2"/></g><g transform="translate(-254,-86) scale(1,1)"><path fill="#ffffff" stroke="none" d="M 1146 376 L 1208.68994140625 376 Q 1218.68994140625 376 1218.68994140625 386 L 1218.68994140625 406 Q 1218.68994140625 416 1208.68994140625 416 L 1146 416 Q 1136 416 1136 406 L 1136 386 Q 1136 376 1146 376 Z"/></g><g transform="translate(-254,-86) scale(1,1)"><path fill="none" stroke="#000000" d="M 1146 376 L 1208.68994140625 376 Q 1218.68994140625 376 1218.68994140625 386 L 1218.68994140625 406 Q 1218.68994140625 416 1208.68994140625 416 L 1146 416 Q 1136 416 1136 406 L 1136 386 Q 1136 376 1146 376 Z" stroke-miterlimit="10"/></g><g transform="translate(-254,-86) scale(1,1)"><g><path fill="none" stroke="none"/><text fill="#000000" stroke="none" font-family="Arial" font-size="13px" font-style="normal" font-weight="bold" text-decoration="none" x="1141.950439453125" y="395.5">操作users表</text></g></g><g transform="translate(-254,-86) scale(1,1)"><path fill="none" stroke="#000000" d="M 904 472 L 1135 408" stroke-miterlimit="10"/></g><g transform="translate(-254,-86) scale(1,1)"><path fill="none" stroke="#000000" d="M 1126.3301948322305 414.77011656863584 L 1135 408 L 1124.0823266391983 406.6567173094098" stroke-miterlimit="10"/></g><g transform="translate(-254,-86) scale(1,1)"><g><path fill="none" stroke="none"/><text fill="#000000" stroke="none" font-family="Arial" font-size="13px" font-style="normal" font-weight="normal" text-decoration="none" x="1001.5" y="431.5">查询</text></g></g><g transform="translate(-254,-86) scale(1,1)"><path fill="none" stroke="#000000" d="M 483 312 L 808 312 L 808 360" stroke-miterlimit="10"/></g><g transform="translate(-254,-86) scale(1,1)"><path fill="none" stroke="#000000" d="M 803.790482243984 349.83732514237585 L 808 360 L 812.209517756016 349.83732514237585" stroke-miterlimit="10"/></g><g transform="translate(-254,-86) scale(1,1)"><g><path fill="none" stroke="none"/><text fill="#000000" stroke="none" font-family="Arial" font-size="13px" font-style="normal" font-weight="normal" text-decoration="none" x="704.5" y="299.5">查询用户状态</text></g></g><g transform="translate(-254,-86) scale(1,1)"><path fill="#C0C0C0" stroke="none" d="M 905 231 L 972 231 Q 982 231 982 241 L 982 261 Q 982 271 972 271 L 905 271 Q 895 271 895 261 L 895 241 Q 895 231 905 231 Z" opacity="0.2"/></g><g transform="translate(-254,-86) scale(1,1)"><path fill="#ffffff" stroke="none" d="M 898 224 L 965 224 Q 975 224 975 234 L 975 254 Q 975 264 965 264 L 898 264 Q 888 264 888 254 L 888 234 Q 888 224 898 224 Z"/></g><g transform="translate(-254,-86) scale(1,1)"><path fill="none" stroke="#000000" d="M 898 224 L 965 224 Q 975 224 975 234 L 975 254 Q 975 264 965 264 L 898 264 Q 888 264 888 254 L 888 234 Q 888 224 898 224 Z" stroke-miterlimit="10"/></g><g transform="translate(-254,-86) scale(1,1)"><g><path fill="none" stroke="none"/><text fill="#000000" stroke="none" font-family="Arial" font-size="13px" font-style="normal" font-weight="bold" text-decoration="none" x="892.5" y="243.5">空转等待消息</text></g></g><g transform="translate(-254,-86) scale(1,1)"><path fill="#C0C0C0" stroke="none" d="M 927 304.5 L 938.5 295 L 949 304.5 L 938.5 313 L 927 304.5" opacity="0.2"/></g><g transform="translate(-254,-86) scale(1,1)"><path fill="#ffffff" stroke="none" d="M 920 297 L 931 288 L 942 297 L 931 306 L 920 297"/></g><g transform="translate(-254,-86) scale(1,1)"><path fill="none" stroke="#000000" d="M 920 297 L 931 288 L 942 297 L 931 306 L 920 297 L 920 297" stroke-miterlimit="10"/></g><g transform="translate(-254,-86) scale(1,1)"><path fill="none" stroke="#000000" d="M 931 265 L 931 287" stroke-miterlimit="10"/></g><g transform="translate(-254,-86) scale(1,1)"><path fill="none" stroke="#000000" d="M 926.790482243984 276.83732514237585 L 931 287 L 935.209517756016 276.83732514237585" stroke-miterlimit="10"/></g><g transform="translate(-254,-86) scale(1,1)"><path fill="#C0C0C0" stroke="none" d="M 945 575 L 1012 575 Q 1022 575 1022 585 L 1022 605 Q 1022 615 1012 615 L 945 615 Q 935 615 935 605 L 935 585 Q 935 575 945 575 Z" opacity="0.2"/></g><g transform="translate(-254,-86) scale(1,1)"><path fill="#ffffff" stroke="none" d="M 938 568 L 1005 568 Q 1015 568 1015 578 L 1015 598 Q 1015 608 1005 608 L 938 608 Q 928 608 928 598 L 928 578 Q 928 568 938 568 Z"/></g><g transform="translate(-254,-86) scale(1,1)"><path fill="none" stroke="#000000" d="M 938 568 L 1005 568 Q 1015 568 1015 578 L 1015 598 Q 1015 608 1005 608 L 938 608 Q 928 608 928 598 L 928 578 Q 928 568 938 568 Z" stroke-miterlimit="10"/></g><g transform="translate(-254,-86) scale(1,1)"><g><path fill="none" stroke="none"/><text fill="#000000" stroke="none" font-family="Arial" font-size="13px" font-style="normal" font-weight="bold" text-decoration="none" x="939" y="587.5">xx表格查询</text></g></g><g transform="translate(-254,-86) scale(1,1)"><path fill="none" stroke="#000000" d="M 932 307 L 968 567" stroke-miterlimit="10"/></g><g transform="translate(-254,-86) scale(1,1)"><path fill="none" stroke="#000000" d="M 962.4364208086141 557.5107120087343 L 968 567 L 970.7758953133587 556.3560155388467" stroke-miterlimit="10"/></g><g transform="translate(-254,-86) scale(1,1)"><g><path fill="none" stroke="none"/><text fill="#000000" stroke="none" font-family="Arial" font-size="13px" font-style="normal" font-weight="normal" text-decoration="none" x="937.5" y="440.5">登录消息</text></g></g><g transform="translate(-254,-86) scale(1,1)"><path fill="#C0C0C0" stroke="none" d="M 1025 495 L 1081.208984375 495 Q 1091.208984375 495 1091.208984375 505 L 1091.208984375 525 Q 1091.208984375 535 1081.208984375 535 L 1025 535 Q 1015 535 1015 525 L 1015 505 Q 1015 495 1025 495 Z" opacity="0.2"/></g><g transform="translate(-254,-86) scale(1,1)"><path fill="#ffffff" stroke="none" d="M 1018 488 L 1074.208984375 488 Q 1084.208984375 488 1084.208984375 498 L 1084.208984375 518 Q 1084.208984375 528 1074.208984375 528 L 1018 528 Q 1008 528 1008 518 L 1008 498 Q 1008 488 1018 488 Z"/></g><g transform="translate(-254,-86) scale(1,1)"><path fill="none" stroke="#000000" d="M 1018 488 L 1074.208984375 488 Q 1084.208984375 488 1084.208984375 498 L 1084.208984375 518 Q 1084.208984375 528 1074.208984375 528 L 1018 528 Q 1008 528 1008 518 L 1008 498 Q 1008 488 1018 488 Z" stroke-miterlimit="10"/></g><g transform="translate(-254,-86) scale(1,1)"><g><path fill="none" stroke="none"/><text fill="#000000" stroke="none" font-family="Arial" font-size="13px" font-style="normal" font-weight="bold" text-decoration="none" x="1013.6044921875" y="507.5">xx表格修改</text></g></g><g transform="translate(-254,-86) scale(1,1)"><path fill="none" stroke="#000000" d="M 936 307 L 1035 487" stroke-miterlimit="10"/></g><g transform="translate(-254,-86) scale(1,1)"><path fill="none" stroke="#000000" d="M 1026.4139700125947 480.12394814916445 L 1035 487 L 1033.790862863951 476.0666570809186" stroke-miterlimit="10"/></g><g transform="translate(-254,-86) scale(1,1)"><path fill="none" stroke="#000000" d="M 929 180 L 930 223" stroke-miterlimit="10"/></g><g transform="translate(-254,-86) scale(1,1)"><path fill="none" stroke="#000000" d="M 925.5553427141674 212.9379414824055 L 930 223 L 933.9721025036246 212.7422028826507" stroke-miterlimit="10"/></g><g transform="translate(-254,-86) scale(1,1)"><path fill="none" stroke="#000000" d="M 927 307 L 867 463" stroke-miterlimit="10"/></g><g transform="translate(-254,-86) scale(1,1)"><path fill="none" stroke="#000000" d="M 866.719252761894 452.0035832659772 L 867 463 L 874.5771225655166 455.0258408827551" stroke-miterlimit="10"/></g><g transform="translate(-254,-86) scale(1,1)"><path fill="#C0C0C0" stroke="none" d="M 818 367 L 817 367 Q 820 367 820 370 L 820 460 Q 820 463 817 463 L 818 463 Q 815 463 815 460 L 815 370 Q 815 367 818 367 Z" opacity="0.2"/></g><g transform="translate(-254,-86) scale(1,1)"><path fill="#000000" stroke="none" d="M 811 360 L 811 360 Q 814 360 814 363 L 814 453 Q 814 456 811 456 L 811 456 Q 808 456 808 453 L 808 363 Q 808 360 811 360 Z"/></g><g transform="translate(-254,-86) scale(1,1)"><path fill="none" stroke="#000000" d="M 814 403 L 916 265" stroke-miterlimit="10"/></g><g transform="translate(-254,-86) scale(1,1)"><path fill="none" stroke="#000000" d="M 913.344590654394 275.6746803796305 L 916 265 L 906.5742031614601 270.6704809283316" stroke-miterlimit="10"/></g><g transform="translate(-254,-86) scale(1,1)"><g><path fill="none" stroke="none"/><text fill="#000000" stroke="none" font-family="Arial" font-size="13px" font-style="normal" font-weight="normal" text-decoration="none" x="825.5" y="331.5">消息传入</text></g></g><g transform="translate(-254,-86) scale(1,1)"><path fill="none" stroke="#000000" d="M 932 307 L 968 567" stroke-miterlimit="10"/></g><g transform="translate(-254,-86) scale(1,1)"><path fill="none" stroke="#000000" d="M 962.4364208086141 557.5107120087343 L 968 567 L 970.7758953133587 556.3560155388467" stroke-miterlimit="10"/></g><g transform="translate(-254,-86) scale(1,1)"><g><path fill="none" stroke="none"/><text fill="#000000" stroke="none" font-family="Arial" font-size="13px" font-style="normal" font-weight="normal" text-decoration="none" x="965" y="314">不同消息不同动作</text></g></g><g transform="translate(-254,-86) scale(1,1)"><path fill="#C0C0C0" stroke="none" d="M 1305 255 L 1346 255 Q 1356 255 1356 265 L 1356 285 Q 1356 295 1346 295 L 1305 295 Q 1295 295 1295 285 L 1295 265 Q 1295 255 1305 255 Z" opacity="0.2"/></g><g transform="translate(-254,-86) scale(1,1)"><path fill="#ffffff" stroke="none" d="M 1298 248 L 1339 248 Q 1349 248 1349 258 L 1349 278 Q 1349 288 1339 288 L 1298 288 Q 1288 288 1288 278 L 1288 258 Q 1288 248 1298 248 Z"/></g><g transform="translate(-254,-86) scale(1,1)"><path fill="none" stroke="#000000" d="M 1298 248 L 1339 248 Q 1349 248 1349 258 L 1349 278 Q 1349 288 1339 288 L 1298 288 Q 1288 288 1288 278 L 1288 258 Q 1288 248 1298 248 Z" stroke-miterlimit="10"/></g><g transform="translate(-254,-86) scale(1,1)"><g><path fill="none" stroke="none"/><text fill="#000000" stroke="none" font-family="Arial" font-size="13px" font-style="normal" font-weight="bold" text-decoration="none" x="1292.5" y="267.5">等待消息</text></g></g><g transform="translate(-254,-86) scale(1,1)"><path fill="#C0C0C0" stroke="none" d="M 1287 376.5 L 1298.5 367 L 1309 376.5 L 1298.5 385 L 1287 376.5" opacity="0.2"/></g><g transform="translate(-254,-86) scale(1,1)"><path fill="#ffffff" stroke="none" d="M 1280 369 L 1291 360 L 1302 369 L 1291 378 L 1280 369"/></g><g transform="translate(-254,-86) scale(1,1)"><path fill="none" stroke="#000000" d="M 1280 369 L 1291 360 L 1302 369 L 1291 378 L 1280 369 L 1280 369" stroke-miterlimit="10"/></g><g transform="translate(-254,-86) scale(1,1)"><path fill="none" stroke="#000000" d="M 1312 289 L 1294 359" stroke-miterlimit="10"/></g><g transform="translate(-254,-86) scale(1,1)"><path fill="none" stroke="#000000" d="M 1292.4540349174574 348.1091785450518 L 1294 359 L 1300.6078113101423 350.2058639031708" stroke-miterlimit="10"/></g><g transform="translate(-254,-86) scale(1,1)"><path fill="#C0C0C0" stroke="none" d="M 1257 615 L 1296 615 Q 1306 615 1306 625 L 1306 645 Q 1306 655 1296 655 L 1257 655 Q 1247 655 1247 645 L 1247 625 Q 1247 615 1257 615 Z" opacity="0.2"/></g><g transform="translate(-254,-86) scale(1,1)"><path fill="#ffffff" stroke="none" d="M 1250 608 L 1289 608 Q 1299 608 1299 618 L 1299 638 Q 1299 648 1289 648 L 1250 648 Q 1240 648 1240 638 L 1240 618 Q 1240 608 1250 608 Z"/></g><g transform="translate(-254,-86) scale(1,1)"><path fill="none" stroke="#000000" d="M 1250 608 L 1289 608 Q 1299 608 1299 618 L 1299 638 Q 1299 648 1289 648 L 1250 648 Q 1240 648 1240 638 L 1240 618 Q 1240 608 1250 608 Z" stroke-miterlimit="10"/></g><g transform="translate(-254,-86) scale(1,1)"><g><path fill="none" stroke="none"/><text fill="#000000" stroke="none" font-family="Arial" font-size="13px" font-style="normal" font-weight="bold" text-decoration="none" x="1256.5" y="627.5">查询</text></g></g><g transform="translate(-254,-86) scale(1,1)"><path fill="none" stroke="#000000" d="M 1290 379 L 1271 607" stroke-miterlimit="10"/></g><g transform="translate(-254,-86) scale(1,1)"><path fill="none" stroke="#000000" d="M 1267.6489871461347 596.5228480562116 L 1271 607 L 1276.038941274163 597.222010900214" stroke-miterlimit="10"/></g><g transform="translate(-254,-86) scale(1,1)"><path fill="#C0C0C0" stroke="none" d="M 1153 511 L 1192 511 Q 1202 511 1202 521 L 1202 565 Q 1202 575 1192 575 L 1153 575 Q 1143 575 1143 565 L 1143 521 Q 1143 511 1153 511 Z" opacity="0.2"/></g><g transform="translate(-254,-86) scale(1,1)"><path fill="#ffffff" stroke="none" d="M 1146 504 L 1185 504 Q 1195 504 1195 514 L 1195 558 Q 1195 568 1185 568 L 1146 568 Q 1136 568 1136 558 L 1136 514 Q 1136 504 1146 504 Z"/></g><g transform="translate(-254,-86) scale(1,1)"><path fill="none" stroke="#000000" d="M 1146 504 L 1185 504 Q 1195 504 1195 514 L 1195 558 Q 1195 568 1185 568 L 1146 568 Q 1136 568 1136 558 L 1136 514 Q 1136 504 1146 504 Z" stroke-miterlimit="10"/></g><g transform="translate(-254,-86) scale(1,1)"><g><path fill="none" stroke="none"/><text fill="#000000" stroke="none" font-family="Arial" font-size="13px" font-style="normal" font-weight="bold" text-decoration="none" x="1152.5" y="523.5">修改</text></g></g><g transform="translate(-254,-86) scale(1,1)"><path fill="none" stroke="#000000" d="M 1283 379 L 1190 503" stroke-miterlimit="10"/></g><g transform="translate(-254,-86) scale(1,1)"><path fill="none" stroke="#000000" d="M 1192.7299907097618 492.3441494602911 L 1190 503 L 1199.4652191193873 497.39557076751026" stroke-miterlimit="10"/></g><g transform="translate(-254,-86) scale(1,1)"><path fill="none" stroke="#000000" d="M 1279 372 L 1220 386" stroke-miterlimit="10"/></g><g transform="translate(-254,-86) scale(1,1)"><path fill="none" stroke="#000000" d="M 1228.916226542627 379.5578804543419 L 1220 386 L 1230.8599906668364 387.7494578349379" stroke-miterlimit="10"/></g><g transform="translate(-254,-86) scale(1,1)"><path fill="#C0C0C0" stroke="none" d="M 810 855 L 809 855 Q 812 855 812 858 L 812 1089 Q 812 1092 809 1092 L 810 1092 Q 807 1092 807 1089 L 807 858 Q 807 855 810 855 Z" opacity="0.2"/></g><g transform="translate(-254,-86) scale(1,1)"><path fill="#000000" stroke="none" d="M 803 848 L 803 848 Q 806 848 806 851 L 806 1082 Q 806 1085 803 1085 L 803 1085 Q 800 1085 800 1082 L 800 851 Q 800 848 803 848 Z"/></g><g transform="translate(-254,-86) scale(1,1)"><path fill="none" stroke="#000000" d="M 857 505 L 806 932" stroke-miterlimit="10"/></g><g transform="translate(-254,-86) scale(1,1)"><path fill="none" stroke="#000000" d="M 803.0254327806609 921.409818233022 L 806 932 L 811.3850526895384 922.4082740066818" stroke-miterlimit="10"/></g><g transform="translate(-254,-86) scale(1,1)"><path fill="none" stroke="#000000" d="M 799 959 L 608 504 L 470 329" stroke-miterlimit="10"/></g><g transform="translate(-254,-86) scale(1,1)"><path fill="none" stroke="#000000" d="M 479.5982348418349 334.37344283685854 L 470 329 L 472.9873790758215 339.58657481234343" stroke-miterlimit="10"/></g><g transform="translate(-254,-86) scale(1,1)"><g><path fill="none" stroke="none"/><text fill="#000000" stroke="none" font-family="Arial" font-size="13px" font-style="normal" font-weight="normal" text-decoration="none" x="507.5" y="448.5">返回消息</text></g></g><g transform="translate(-254,-86) scale(1,1)"><path fill="none" stroke="#000000" d="M 443 329 L 390 439" stroke-miterlimit="10"/></g><g transform="translate(-254,-86) scale(1,1)"><path fill="none" stroke="#000000" d="M 390.61894610074444 428.017427181012 L 390 439 L 398.20351270020683 431.6718092698439" stroke-miterlimit="10"/></g><g transform="translate(-254,-86) scale(1,1)"><path fill="#C0C0C0" stroke="none" d="M 513 471 L 552 471 Q 562 471 562 481 L 562 501 Q 562 511 552 511 L 513 511 Q 503 511 503 501 L 503 481 Q 503 471 513 471 Z" opacity="0.2"/></g><g transform="translate(-254,-86) scale(1,1)"><path fill="#ffffff" stroke="none" d="M 506 464 L 545 464 Q 555 464 555 474 L 555 494 Q 555 504 545 504 L 506 504 Q 496 504 496 494 L 496 474 Q 496 464 506 464 Z"/></g><g transform="translate(-254,-86) scale(1,1)"><path fill="none" stroke="#000000" d="M 506 464 L 545 464 Q 555 464 555 474 L 555 494 Q 555 504 545 504 L 506 504 Q 496 504 496 494 L 496 474 Q 496 464 506 464 Z" stroke-miterlimit="10"/></g><g transform="translate(-254,-86) scale(1,1)"><g><path fill="none" stroke="none"/><text fill="#000000" stroke="none" font-family="Arial" font-size="13px" font-style="normal" font-weight="bold" text-decoration="none" x="512.5" y="483.5">注册</text></g></g><g transform="translate(-254,-86) scale(1,1)"><path fill="none" stroke="#000000" d="M 401 456 L 495 477" stroke-miterlimit="10"/></g><g transform="translate(-254,-86) scale(1,1)"><path fill="none" stroke="#000000" d="M 484.16401765065143 478.8924815784061 L 495 477 L 485.9996168425963 470.6759899573195" stroke-miterlimit="10"/></g><g transform="translate(-254,-86) scale(1,1)"><path fill="none" stroke="#000000" d="M 537 463 L 584 384 L 807 408" stroke-miterlimit="10"/></g><g transform="translate(-254,-86) scale(1,1)"><path fill="none" stroke="#000000" d="M 796.4452336472119 411.0978875444492 L 807 408 L 797.3461158480707 402.7271904281373" stroke-miterlimit="10"/></g><g transform="translate(-254,-86) scale(1,1)"><path fill="#C0C0C0" stroke="none" d="M 401 663 L 440 663 Q 450 663 450 673 L 450 693 Q 450 703 440 703 L 401 703 Q 391 703 391 693 L 391 673 Q 391 663 401 663 Z" opacity="0.2"/></g><g transform="translate(-254,-86) scale(1,1)"><path fill="#ffffff" stroke="none" d="M 394 656 L 433 656 Q 443 656 443 666 L 443 686 Q 443 696 433 696 L 394 696 Q 384 696 384 686 L 384 666 Q 384 656 394 656 Z"/></g><g transform="translate(-254,-86) scale(1,1)"><path fill="none" stroke="#000000" d="M 394 656 L 433 656 Q 443 656 443 666 L 443 686 Q 443 696 433 696 L 394 696 Q 384 696 384 686 L 384 666 Q 384 656 394 656 Z" stroke-miterlimit="10"/></g><g transform="translate(-254,-86) scale(1,1)"><g><path fill="none" stroke="none"/><text fill="#000000" stroke="none" font-family="Arial" font-size="13px" font-style="normal" font-weight="bold" text-decoration="none" x="394" y="675.5">主界面</text></g></g><g transform="translate(-254,-86) scale(1,1)"><path fill="none" stroke="#000000" d="M 386 465 L 410 655" stroke-miterlimit="10"/></g><g transform="translate(-254,-86) scale(1,1)"><path fill="none" stroke="#000000" d="M 404.5500824502425 645.444980444769 L 410 655 L 412.90274546553275 644.389907221785" stroke-miterlimit="10"/></g><g transform="translate(-254,-86) scale(1,1)"><path fill="#C0C0C0" stroke="none" d="M 415 848.5 L 426.5 839 L 437 848.5 L 426.5 857 L 415 848.5" opacity="0.2"/></g><g transform="translate(-254,-86) scale(1,1)"><path fill="#ffffff" stroke="none" d="M 408 841 L 419 832 L 430 841 L 419 850 L 408 841"/></g><g transform="translate(-254,-86) scale(1,1)"><path fill="none" stroke="#000000" d="M 408 841 L 419 832 L 430 841 L 419 850 L 408 841 L 408 841" stroke-miterlimit="10"/></g><g transform="translate(-254,-86) scale(1,1)"><path fill="none" stroke="#000000" d="M 414 697 L 419 831" stroke-miterlimit="10"/></g><g transform="translate(-254,-86) scale(1,1)"><path fill="none" stroke="#000000" d="M 414.4144690475553 821.0013547975652 L 419 831 L 422.82764979350554 820.6874301428657" stroke-miterlimit="10"/></g><g transform="translate(-254,-86) scale(1,1)"><path fill="#C0C0C0" stroke="none" d="M 321 903 L 360 903 Q 370 903 370 913 L 370 933 Q 370 943 360 943 L 321 943 Q 311 943 311 933 L 311 913 Q 311 903 321 903 Z" opacity="0.2"/></g><g transform="translate(-254,-86) scale(1,1)"><path fill="#ffffff" stroke="none" d="M 314 896 L 353 896 Q 363 896 363 906 L 363 926 Q 363 936 353 936 L 314 936 Q 304 936 304 926 L 304 906 Q 304 896 314 896 Z"/></g><g transform="translate(-254,-86) scale(1,1)"><path fill="none" stroke="#000000" d="M 314 896 L 353 896 Q 363 896 363 906 L 363 926 Q 363 936 353 936 L 314 936 Q 304 936 304 926 L 304 906 Q 304 896 314 896 Z" stroke-miterlimit="10"/></g><g transform="translate(-254,-86) scale(1,1)"><g><path fill="none" stroke="none"/><text fill="#000000" stroke="none" font-family="Arial" font-size="13px" font-style="normal" font-weight="bold" text-decoration="none" x="320.5" y="915.5">查看</text></g></g><g transform="translate(-254,-86) scale(1,1)"><path fill="#C0C0C0" stroke="none" d="M 409 983 L 448 983 Q 458 983 458 993 L 458 1013 Q 458 1023 448 1023 L 409 1023 Q 399 1023 399 1013 L 399 993 Q 399 983 409 983 Z" opacity="0.2"/></g><g transform="translate(-254,-86) scale(1,1)"><path fill="#ffffff" stroke="none" d="M 402 976 L 441 976 Q 451 976 451 986 L 451 1006 Q 451 1016 441 1016 L 402 1016 Q 392 1016 392 1006 L 392 986 Q 392 976 402 976 Z"/></g><g transform="translate(-254,-86) scale(1,1)"><path fill="none" stroke="#000000" d="M 402 976 L 441 976 Q 451 976 451 986 L 451 1006 Q 451 1016 441 1016 L 402 1016 Q 392 1016 392 1006 L 392 986 Q 392 976 402 976 Z" stroke-miterlimit="10"/></g><g transform="translate(-254,-86) scale(1,1)"><g><path fill="none" stroke="none"/><text fill="#000000" stroke="none" font-family="Arial" font-size="13px" font-style="normal" font-weight="bold" text-decoration="none" x="408.5" y="995.5">购买</text></g></g><g transform="translate(-254,-86) scale(1,1)"><path fill="#C0C0C0" stroke="none" d="M 521 1063 L 560 1063 Q 570 1063 570 1073 L 570 1093 Q 570 1103 560 1103 L 521 1103 Q 511 1103 511 1093 L 511 1073 Q 511 1063 521 1063 Z" opacity="0.2"/></g><g transform="translate(-254,-86) scale(1,1)"><path fill="#ffffff" stroke="none" d="M 514 1056 L 553 1056 Q 563 1056 563 1066 L 563 1086 Q 563 1096 553 1096 L 514 1096 Q 504 1096 504 1086 L 504 1066 Q 504 1056 514 1056 Z"/></g><g transform="translate(-254,-86) scale(1,1)"><path fill="none" stroke="#000000" d="M 514 1056 L 553 1056 Q 563 1056 563 1066 L 563 1086 Q 563 1096 553 1096 L 514 1096 Q 504 1096 504 1086 L 504 1066 Q 504 1056 514 1056 Z" stroke-miterlimit="10"/></g><g transform="translate(-254,-86) scale(1,1)"><g><path fill="none" stroke="none"/><text fill="#000000" stroke="none" font-family="Arial" font-size="13px" font-style="normal" font-weight="bold" text-decoration="none" x="520.5" y="1075.5">催货</text></g></g><g transform="translate(-254,-86) scale(1,1)"><path fill="none" stroke="#000000" d="M 408 851 L 357 895" stroke-miterlimit="10"/></g><g transform="translate(-254,-86) scale(1,1)"><path fill="none" stroke="#000000" d="M 361.94494066265656 885.1741381119616 L 357 895 L 367.44453464716395 891.5486675030952" stroke-miterlimit="10"/></g><g transform="translate(-254,-86) scale(1,1)"><path fill="none" stroke="#000000" d="M 419 851 L 421 975" stroke-miterlimit="10"/></g><g transform="translate(-254,-86) scale(1,1)"><path fill="none" stroke="#000000" d="M 416.62713688711733 964.9065333905545 L 421 975 L 425.04507752489906 964.7707601544613" stroke-miterlimit="10"/></g><g transform="translate(-254,-86) scale(1,1)"><path fill="none" stroke="#000000" d="M 424 851 L 523 1055" stroke-miterlimit="10"/></g><g transform="translate(-254,-86) scale(1,1)"><path fill="none" stroke="#000000" d="M 514.7758749082226 1047.6949492489923 L 523 1055 L 522.3501163012272 1044.0192144553284" stroke-miterlimit="10"/></g><g transform="translate(-254,-86) scale(1,1)"><path fill="none" stroke="#000000" d="M 364 916 L 640 912 L 656 424 L 807 408" stroke-miterlimit="10"/></g><g transform="translate(-254,-86) scale(1,1)"><path fill="none" stroke="#000000" d="M 797.3374588181364 413.2569285622681 L 807 408 L 796.4503417722169 404.88476144140304" stroke-miterlimit="10"/></g><g transform="translate(-254,-86) scale(1,1)"><path fill="none" stroke="#000000" d="M 452 995 L 680 984 L 680 432 L 807 409" stroke-miterlimit="10"/></g><g transform="translate(-254,-86) scale(1,1)"><path fill="none" stroke="#000000" d="M 797.7501436631675 414.9531636755559 L 807 409 L 796.2498414547254 406.6688862637234" stroke-miterlimit="10"/></g><g transform="translate(-254,-86) scale(1,1)"><path fill="none" stroke="#000000" d="M 1228 180 L 1297 247" stroke-miterlimit="10"/></g><g transform="translate(-254,-86) scale(1,1)"><path fill="none" stroke="#000000" d="M 1286.7765258891982 242.9403722946846 L 1297 247 L 1292.6415024084881 236.90032184944562" stroke-miterlimit="10"/></g><g transform="translate(-254,-86) scale(1,1)"><path fill="none" stroke="#000000" d="M 564 1072 L 696 1056 L 704 456 L 807 409" stroke-miterlimit="10"/></g><g transform="translate(-254,-86) scale(1,1)"><path fill="none" stroke="#000000" d="M 799.5019111451243 417.048519337393 L 807 409 L 796.0068879227965 409.3892131267597" stroke-miterlimit="10"/></g><g transform="translate(-254,-86) scale(1,1)"><path fill="#C0C0C0" stroke="none" d="M 385 1175 L 452 1175 Q 462 1175 462 1185 L 462 1205 Q 462 1215 452 1215 L 385 1215 Q 375 1215 375 1205 L 375 1185 Q 375 1175 385 1175 Z" opacity="0.2"/></g><g transform="translate(-254,-86) scale(1,1)"><path fill="#ffffff" stroke="none" d="M 378 1168 L 445 1168 Q 455 1168 455 1178 L 455 1198 Q 455 1208 445 1208 L 378 1208 Q 368 1208 368 1198 L 368 1178 Q 368 1168 378 1168 Z"/></g><g transform="translate(-254,-86) scale(1,1)"><path fill="none" stroke="#000000" d="M 378 1168 L 445 1168 Q 455 1168 455 1178 L 455 1198 Q 455 1208 445 1208 L 378 1208 Q 368 1208 368 1198 L 368 1178 Q 368 1168 378 1168 Z" stroke-miterlimit="10"/></g><g transform="translate(-254,-86) scale(1,1)"><g><path fill="none" stroke="none"/><text fill="#000000" stroke="none" font-family="Arial" font-size="13px" font-style="normal" font-weight="bold" text-decoration="none" x="372.5" y="1187.5">等待返回结果</text></g></g><g transform="translate(-254,-86) scale(1,1)"><path fill="#C0C0C0" stroke="none" d="M 399 1128.5 L 410.5 1119 L 421 1128.5 L 410.5 1137 L 399 1128.5" opacity="0.2"/></g><g transform="translate(-254,-86) scale(1,1)"><path fill="#ffffff" stroke="none" d="M 392 1121 L 403 1112 L 414 1121 L 403 1130 L 392 1121"/></g><g transform="translate(-254,-86) scale(1,1)"><path fill="none" stroke="#000000" d="M 392 1121 L 403 1112 L 414 1121 L 403 1130 L 392 1121 L 392 1121" stroke-miterlimit="10"/></g><g transform="translate(-254,-86) scale(1,1)"><path fill="none" stroke="#000000" d="M 340 937 L 400 1111" stroke-miterlimit="10"/></g><g transform="translate(-254,-86) scale(1,1)"><path fill="none" stroke="#000000" d="M 392.7074983265966 1102.7647453382783 L 400 1111 L 400.6666270310237 1100.0202181988207" stroke-miterlimit="10"/></g><g transform="translate(-254,-86) scale(1,1)"><path fill="none" stroke="#000000" d="M 418 1017 L 404 1111" stroke-miterlimit="10"/></g><g transform="translate(-254,-86) scale(1,1)"><path fill="none" stroke="#000000" d="M 401.3334842100497 1100.3280885713034 L 404 1111 L 409.66066954223874 1101.5683076633316" stroke-miterlimit="10"/></g><g transform="translate(-254,-86) scale(1,1)"><path fill="none" stroke="#000000" d="M 503 1086 L 415 1117" stroke-miterlimit="10"/></g><g transform="translate(-254,-86) scale(1,1)"><path fill="none" stroke="#000000" d="M 423.1866614259751 1109.6529887235386 L 415 1117 L 425.98396530462526 1117.5937223145454" stroke-miterlimit="10"/></g><g transform="translate(-254,-86) scale(1,1)"><path fill="none" stroke="#000000" d="M 404 1131 L 408 1167" stroke-miterlimit="10"/></g><g transform="translate(-254,-86) scale(1,1)"><path fill="none" stroke="#000000" d="M 402.693949077946 1157.3643462280668 L 408 1167 L 411.06149153499416 1156.4346192883947" stroke-miterlimit="10"/></g><g transform="translate(-254,-86) scale(1,1)"><path fill="none" stroke="#000000" d="M 799 970 L 688 1136 L 456 1180" stroke-miterlimit="10"/></g><g transform="translate(-254,-86) scale(1,1)"><path fill="none" stroke="#000000" d="M 465.2003162854205 1173.9705572190935 L 456 1180 L 466.76906591163714 1182.2421461573267" stroke-miterlimit="10"/></g><g transform="translate(-254,-86) scale(1,1)"><path fill="#C0C0C0" stroke="none" d="M 977 783 L 1057 783 Q 1067 783 1067 793 L 1067 813 Q 1067 823 1057 823 L 977 823 Q 967 823 967 813 L 967 793 Q 967 783 977 783 Z" opacity="0.2"/></g><g transform="translate(-254,-86) scale(1,1)"><path fill="#ffffff" stroke="none" d="M 970 776 L 1050 776 Q 1060 776 1060 786 L 1060 806 Q 1060 816 1050 816 L 970 816 Q 960 816 960 806 L 960 786 Q 960 776 970 776 Z"/></g><g transform="translate(-254,-86) scale(1,1)"><path fill="none" stroke="#000000" d="M 970 776 L 1050 776 Q 1060 776 1060 786 L 1060 806 Q 1060 816 1050 816 L 970 816 Q 960 816 960 806 L 960 786 Q 960 776 970 776 Z" stroke-miterlimit="10"/></g><g transform="translate(-254,-86) scale(1,1)"><g><path fill="none" stroke="none"/><text fill="#000000" stroke="none" font-family="Arial" font-size="13px" font-style="normal" font-weight="bold" text-decoration="none" x="964.5" y="795.5">数据库返回结果</text></g></g><g transform="translate(-254,-86) scale(1,1)"><path fill="none" stroke="#000000" d="M 1085 517 L 1135 529" stroke-miterlimit="10"/></g><g transform="translate(-254,-86) scale(1,1)"><path fill="none" stroke="#000000" d="M 1124.135556427071 530.721588176841 L 1135 529 L 1126.1003316015083 522.535024950018" stroke-miterlimit="10"/></g><g transform="translate(-254,-86) scale(1,1)"><path fill="none" stroke="#000000" d="M 1016 594 L 1239 624" stroke-miterlimit="10"/></g><g transform="translate(-254,-86) scale(1,1)"><path fill="none" stroke="#000000" d="M 1228.366811064166 626.8169652207404 L 1239 624 L 1229.489304787882 618.4730952077863" stroke-miterlimit="10"/></g><g transform="translate(-254,-86) scale(1,1)"><path fill="none" stroke="#000000" d="M 1145 569 L 1023 775" stroke-miterlimit="10"/></g><g transform="translate(-254,-86) scale(1,1)"><path fill="none" stroke="#000000" d="M 1024.556645100337 764.110699929215 L 1023 775 L 1031.8006122287761 768.4008163839219" stroke-miterlimit="10"/></g><g transform="translate(-254,-86) scale(1,1)"><path fill="none" stroke="#000000" d="M 1239 647 L 1042 775" stroke-miterlimit="10"/></g><g transform="translate(-254,-86) scale(1,1)"><path fill="none" stroke="#000000" d="M 1048.228309747919 765.9331285614068 L 1042 775 L 1052.8153263364597 772.9928337797078" stroke-miterlimit="10"/></g><g transform="translate(-254,-86) scale(1,1)"><path fill="none" stroke="#000000" d="M 984 817 L 806 963" stroke-miterlimit="10"/></g><g transform="translate(-254,-86) scale(1,1)"><path fill="none" stroke="#000000" d="M 811.1879966930708 953.3002736990837 L 806 963 L 816.5272098854751 959.8097253994123" stroke-miterlimit="10"/></g><g transform="translate(-254,-86) scale(1,1)"><path fill="none" stroke="#000000" d="M 408 1209 L 390 1359" stroke-miterlimit="10"/></g><g transform="translate(-254,-86) scale(1,1)"><path fill="none" stroke="#000000" d="M 387.0313014568373 1348.4081715950538 L 390 1359 L 395.39036681913274 1349.4112594385292" stroke-miterlimit="10"/></g></g></svg>